<svg width="32" height="32" viewBox="0 0 32 32" xmlns="http://www.w3.org/2000/svg">
  <!-- Cloud -->
  <g fill="#4A90E2">
    <ellipse cx="16" cy="12" rx="9" ry="5"/>
    <ellipse cx="12" cy="11" rx="5" ry="4"/>
    <ellipse cx="20" cy="11" rx="5" ry="4"/>
    <ellipse cx="16" cy="9" rx="6" ry="3"/>
  </g>
  
  <!-- Rain drops -->
  <g fill="#2E5BBA" opacity="0.8">
    <!-- Row 1 -->
    <ellipse cx="10" cy="19" rx="0.8" ry="2"/>
    <ellipse cx="14" cy="18" rx="0.6" ry="1.8"/>
    <ellipse cx="18" cy="19" rx="0.8" ry="2"/>
    <ellipse cx="22" cy="18" rx="0.6" ry="1.8"/>
    
    <!-- Row 2 -->
    <ellipse cx="8" cy="23" rx="0.6" ry="1.8"/>
    <ellipse cx="12" cy="22" rx="0.8" ry="2"/>
    <ellipse cx="16" cy="23" rx="0.8" ry="2"/>
    <ellipse cx="20" cy="22" rx="0.8" ry="2"/>
    <ellipse cx="24" cy="23" rx="0.6" ry="1.8"/>
    
    <!-- Row 3 -->
    <ellipse cx="11" cy="26" rx="0.6" ry="1.8"/>
    <ellipse cx="15" cy="27" rx="0.8" ry="2"/>
    <ellipse cx="19" cy="26" rx="0.6" ry="1.8"/>
    
    <!-- Row 4 -->
    <ellipse cx="13" cy="29" rx="0.6" ry="1.8"/>
    <ellipse cx="17" cy="30" rx="0.8" ry="2"/>
  </g>
  
  <!-- Letter R -->
  <text x="16" y="14" text-anchor="middle" fill="white" font-family="Arial" font-size="6" font-weight="bold">R</text>
</svg>
