<svg width="48" height="48" viewBox="0 0 48 48" xmlns="http://www.w3.org/2000/svg">
  <!-- Cloud -->
  <g fill="#4A90E2">
    <ellipse cx="24" cy="18" rx="13.5" ry="7.5"/>
    <ellipse cx="18" cy="16.5" rx="7.5" ry="6"/>
    <ellipse cx="30" cy="16.5" rx="7.5" ry="6"/>
    <ellipse cx="24" cy="13.5" rx="9" ry="4.5"/>
  </g>
  
  <!-- Rain drops -->
  <g fill="#2E5BBA" opacity="0.8">
    <!-- Row 1 -->
    <ellipse cx="15" cy="28" rx="1.2" ry="3"/>
    <ellipse cx="21" cy="27" rx="1" ry="2.7"/>
    <ellipse cx="27" cy="28" rx="1.2" ry="3"/>
    <ellipse cx="33" cy="27" rx="1" ry="2.7"/>
    
    <!-- Row 2 -->
    <ellipse cx="12" cy="34" rx="1" ry="2.7"/>
    <ellipse cx="18" cy="33" rx="1.2" ry="3"/>
    <ellipse cx="24" cy="34" rx="1.2" ry="3"/>
    <ellipse cx="30" cy="33" rx="1.2" ry="3"/>
    <ellipse cx="36" cy="34" rx="1" ry="2.7"/>
    
    <!-- Row 3 -->
    <ellipse cx="16" cy="39" rx="1" ry="2.7"/>
    <ellipse cx="22" cy="40" rx="1.2" ry="3"/>
    <ellipse cx="28" cy="39" rx="1" ry="2.7"/>
    
    <!-- Row 4 -->
    <ellipse cx="19" cy="43" rx="1" ry="2.7"/>
    <ellipse cx="25" cy="44" rx="1.2" ry="3"/>
  </g>
  
  <!-- Letter R -->
  <text x="24" y="21" text-anchor="middle" fill="white" font-family="Arial" font-size="9" font-weight="bold">R</text>
</svg>
